<svg id="Capa_1" enable-background="new 0 0 512.001 512.001" height="512" viewBox="0 0 512.001 512.001" width="512" xmlns="http://www.w3.org/2000/svg"><path d="m7.501 57.128h64.63c15.75 0 28.563-12.813 28.563-28.563s-12.813-28.563-28.563-28.563h-14.058c-4.142 0-7.5 3.358-7.5 7.5s3.358 7.5 7.5 7.5h14.058c7.479 0 13.563 6.084 13.563 13.563s-6.084 13.563-13.563 13.563h-64.63c-4.142 0-7.5 3.358-7.5 7.5s3.358 7.5 7.5 7.5zm402.52 0h73.417c15.75 0 28.563-12.813 28.563-28.563s-12.813-28.563-28.563-28.563h-14.058c-4.142 0-7.5 3.358-7.5 7.5s3.358 7.5 7.5 7.5h14.058c7.479 0 13.563 6.084 13.563 13.563s-6.084 13.563-13.563 13.563h-73.417c-4.142 0-7.5 3.358-7.5 7.5s3.358 7.5 7.5 7.5zm-21.213 47.873h64.63c7.479 0 13.563 6.084 13.563 13.563s-6.084 13.563-13.563 13.563h-14.058c-4.142 0-7.5 3.358-7.5 7.5s3.358 7.5 7.5 7.5h14.058c15.75 0 28.563-12.813 28.563-28.563s-12.813-28.563-28.563-28.563h-64.63c-4.142 0-7.5 3.358-7.5 7.5s3.358 7.5 7.5 7.5zm-381.307-15h64.63c7.479 0 13.563 6.084 13.563 13.563s-6.084 13.563-13.563 13.563h-14.058c-4.142 0-7.5 3.358-7.5 7.5s3.358 7.5 7.5 7.5h14.058c15.75 0 28.563-12.813 28.563-28.563s-12.813-28.563-28.563-28.563h-64.63c-4.142 0-7.5 3.358-7.5 7.5s3.358 7.5 7.5 7.5zm476.025 140.472c-6.437-9.109-15.848-15.985-26.502-19.362l-79.077-25.021c-1.706-12.386-9.523-22.843-20.306-28.224v-110.795c0-6.136-1.235-12.09-3.669-17.692l-9.665-22.299c-1.833-4.249-6.007-7.027-10.633-7.078-4.59-.082-8.857 2.632-10.776 6.825l-19.029 41.368c-4.663 10.127-5.91 21.711-3.511 32.623l17.87 81.016c-8.741 6.819-14.378 17.439-14.378 29.358 0 .78.032 1.553.08 2.321l-85.737 49.499c-3.587 2.071-4.816 6.658-2.745 10.245 1.389 2.406 3.91 3.751 6.502 3.751 1.272 0 2.562-.324 3.743-1.006l82.404-47.574c1.304 2.485 2.889 4.796 4.698 6.912l-.159 3.2-56.911 52.033c-2.412 2.21-5.092 4.063-7.986 5.54l-47.476-15.024c-1.706-12.383-9.521-22.838-20.301-28.22v-110.798c0-6.108-1.233-12.059-3.668-17.692l-9.673-22.317c-1.842-4.238-6.016-7.009-10.632-7.06-4.623-.053-8.845 2.627-10.78 6.825l-19.029 41.368c-4.667 10.135-5.91 21.721-3.501 32.623l17.87 81.013c-8.743 6.818-14.382 17.441-14.382 29.362 0 .779.032 1.551.079 2.318l-95.946 55.397c-5.298 3.061-9.835 7.101-13.492 12.017l-14.483 19.53c-2.758 3.707-3.076 8.705-.811 12.733 2.269 4.035 6.743 6.356 11.31 5.932l45.345-4.2c11.11-1.036 21.765-5.752 30.004-13.283l44.929-41.085-4.748 95.244c-.206 4.137 2.98 7.658 7.117 7.864 4.099.204 7.662-2.967 7.864-7.117l5.503-110.381.537-.491c4.33 1.767 9.06 2.749 14.018 2.749 4.637 0 9.073-.863 13.17-2.42l9.766 196.002h-47.254l2.787-55.895c.206-4.137-2.98-7.658-7.117-7.864-4.142-.196-7.658 2.98-7.864 7.117l-2.824 56.642h-60.2c-4.142 0-7.5 3.358-7.5 7.5s3.358 7.5 7.5 7.5h384.288c4.142 0 7.5-3.358 7.5-7.5s-3.358-7.5-7.5-7.5h-66.118l-13.498-270.837 89.072 51.432c5.308 3.065 11.082 4.975 17.164 5.676l24.155 2.78c4.532.526 9.071-1.688 11.43-5.668 2.357-3.977 2.154-8.984-.517-12.756zm-349.363 63.782-56.113 51.31c-5.842 5.339-13.397 8.684-21.271 9.418l-38.045 3.524 10.115-13.64c2.423-3.257 5.436-5.939 8.952-7.971l92.609-53.471c1.13 2.153 2.478 4.17 3.991 6.05zm3.161-141.671c-1.707-7.727-.826-15.936 2.48-23.118l15.968-34.712 6.754 15.583c1.615 3.737 2.434 7.685 2.434 11.734v106.933c-.521-.022-1.042-.04-1.568-.04-3.095 0-6.1.386-8.977 1.101zm26.068 135.835c-12.256 0-22.228-9.971-22.228-22.228 0-12.256 9.971-22.228 22.228-22.228s22.228 9.971 22.228 22.228-9.971 22.228-22.228 22.228zm199.913-97.227c0 .107-.007.212-.008.319-.002.069-.005.139-.005.208-.282 12.014-10.134 21.701-22.214 21.701-12.256 0-22.228-9.971-22.228-22.228s9.971-22.228 22.228-22.228 22.227 9.971 22.227 22.228zm-48.299-113.601c-1.701-7.734-.817-15.946 2.488-23.125l15.962-34.701 6.755 15.585c1.612 3.71 2.429 7.654 2.429 11.722v106.933c-.519-.021-1.039-.04-1.563-.04-3.097 0-6.104.386-8.982 1.102zm-49.154 204.046 45.721-41.802-3.433 68.878-2.298-3.245c-6.448-9.108-15.861-15.982-26.509-19.357l-13.655-4.321c.057-.052.117-.101.174-.153zm-66.688-5.164 75.64 23.937c7.549 2.393 14.224 7.267 18.795 13.725l14.912 21.061c.01.014.019.028.03.042l7.134 10.075-16.885-1.943c-4.021-.463-7.846-1.729-11.369-3.765l-92.62-53.467c1.889-2.964 3.369-6.211 4.363-9.665zm99.591 220.528h-97.409l-9.735-195.383 88.308 50.978c5.309 3.066 11.08 4.976 17.154 5.676l8.547.983zm15.019 0 6.779-136.027c4.694.717 9.613-1.375 12.114-5.597 2.356-3.977 2.153-8.981-.516-12.75l-9.981-14.097 5.122-102.771c4.267 1.708 8.915 2.66 13.785 2.66 4.364 0 8.543-.778 12.437-2.165l13.494 270.747zm162.705-228.631c-4.03-.464-7.857-1.73-11.378-3.764l-92.61-53.476c1.887-2.962 3.365-6.207 4.358-9.656l75.645 23.936c7.551 2.394 14.221 7.266 18.785 13.725l22.074 31.177z"/></svg>