<svg id="Capa_1" enable-background="new 0 0 510 510" height="512" viewBox="0 0 510 510" width="512" xmlns="http://www.w3.org/2000/svg"><g><path d="m495 0c-25.263 0-38.631 10.694-49.372 19.287-9.227 7.38-15.892 12.713-30.631 12.713s-21.405-5.333-30.632-12.713c-10.741-8.593-24.109-19.287-49.372-19.287-25.262 0-38.629 10.694-49.37 19.287-9.226 7.38-15.892 12.713-30.63 12.713-14.737 0-21.402-5.333-30.627-12.713-10.741-8.593-24.108-19.287-49.37-19.287s-38.629 10.694-49.369 19.287c-9.226 7.38-15.892 12.713-30.629 12.713s-21.403-5.333-30.629-12.713c-10.74-8.593-24.107-19.287-49.369-19.287h-15l1.369 510h508.631v-510zm-15 480h-448.714l-1.24-447.437c5.722 2.261 10.22 5.859 15.583 10.15 10.74 8.593 24.107 19.287 49.369 19.287s38.629-10.694 49.369-19.287c9.226-7.38 15.892-12.713 30.629-12.713 14.738 0 21.403 5.333 30.628 12.713 10.741 8.593 24.108 19.287 49.369 19.287 25.262 0 38.629-10.694 49.37-19.287 9.226-7.38 15.892-12.713 30.63-12.713 14.739 0 21.405 5.333 30.632 12.713 10.741 8.593 24.109 19.287 49.372 19.287 25.262 0 38.63-10.694 49.371-19.287 5.379-4.303 9.887-7.909 15.632-10.169z"/><path d="m315.314 105h-125.064l-60.103 212.759h105.418l-14.655 117.241h55.681l107.431-220.517h-105.682zm20.721 139.483-78.2 160.517h-2.94l14.655-117.241h-99.754l43.153-152.759h60.568l-36.973 109.483z"/></g></svg>